<?xml version="1.0" encoding="utf-8"?>
<!-- Generator: Adobe Illustrator 16.0.0, SVG Export Plug-In . SVG Version: 6.00 Build 0)  -->
<!DOCTYPE svg PUBLIC "-//W3C//DTD SVG 1.1//EN" "http://www.w3.org/Graphics/SVG/1.1/DTD/svg11.dtd">
<svg version="1.1" id="Layer_1" xmlns="http://www.w3.org/2000/svg" xmlns:xlink="http://www.w3.org/1999/xlink" x="0px" y="0px"
	 width="62px" height="62px" viewBox="19 19 62 62" enable-background="new 19 19 62 62" xml:space="preserve">
<g>
	<path fill="#FFFFFF" d="M50,19c-17.094,0-31,13.906-31,31s13.906,31,31,31c17.094,0,31-13.906,31-31S67.094,19,50,19z M50,79
		c-15.99,0-29-13.01-29-29s13.01-29,29-29c15.99,0,29,13.01,29,29S65.99,79,50,79z"/>
	<polygon fill="#FFFFFF" points="51,38 49,38 49,49 38,49 38,51 49,51 49,62 51,62 51,51 62,51 62,49 51,49 	"/>
</g>
</svg>
